<?xml version="1.0" standalone="no"?>
<!DOCTYPE svg PUBLIC "-//W3C//DTD SVG 20010904//EN"
 "http://www.w3.org/TR/2001/REC-SVG-20010904/DTD/svg10.dtd">
<svg version="1.0" xmlns="http://www.w3.org/2000/svg"
 width="512.000000pt" height="512.000000pt" viewBox="0 0 512.000000 512.000000"
 preserveAspectRatio="xMidYMid meet">

<g transform="translate(0.000000,512.000000) scale(0.100000,-0.100000)"
fill="#000000" stroke="none">
<path d="M4323 3898 l-193 -192 -83 81 c-89 87 -120 103 -168 83 -41 -17 -59
-47 -59 -95 0 -38 6 -46 133 -171 72 -73 143 -134 156 -137 13 -3 38 0 55 7
17 8 133 117 259 243 225 227 227 229 227 272 0 58 -41 101 -96 101 -36 0 -49
-11 -231 -192z"/>
<path d="M835 3846 c-170 -54 -293 -191 -324 -360 -8 -41 -11 -424 -11 -1198
l0 -1138 -219 0 c-218 0 -220 0 -248 -24 -26 -23 -28 -29 -28 -103 1 -147 79
-313 196 -416 68 -61 193 -123 284 -142 105 -22 4045 -22 4150 0 90 19 215 81
282 140 118 104 197 271 198 418 0 74 -2 80 -28 103 -28 24 -30 24 -248 24
l-219 0 0 941 c0 892 -1 941 -17 936 -10 -3 -55 -16 -100 -28 l-83 -24 0 -912
0 -913 -1860 0 -1860 0 2 1163 3 1162 22 41 c28 53 79 102 128 125 38 18 94
19 1301 19 693 0 1263 2 1265 4 2 3 0 48 -5 100 l-9 96 -1266 -1 c-994 0
-1275 -3 -1306 -13z m4065 -2911 c0 -54 -95 -176 -172 -222 -112 -67 35 -63
-2168 -63 -1771 0 -2002 2 -2055 16 -74 19 -136 54 -191 110 -42 42 -94 129
-94 159 0 13 244 15 2340 15 2100 0 2340 -2 2340 -15z"/>
<path d="M1039 3332 c-54 -48 -39 -130 28 -158 99 -42 180 80 104 157 -40 39
-89 40 -132 1z"/>
<path d="M1539 3331 c-57 -57 -27 -151 52 -166 19 -3 377 -5 797 -3 l764 3 29
33 c40 44 40 93 0 133 l-29 29 -792 0 -792 0 -29 -29z"/>
<path d="M1051 2844 c-100 -71 -11 -226 97 -170 38 20 52 44 52 91 0 74 -88
121 -149 79z"/>
<path d="M1539 2831 c-31 -31 -39 -83 -19 -122 28 -51 -12 -49 1140 -49 1152
0 1112 -2 1140 49 20 39 12 91 -19 122 l-29 29 -1092 0 -1092 0 -29 -29z"/>
</g>
</svg>
