<svg xmlns="http://www.w3.org/2000/svg" width="512" height="512" viewBox="0 0 512 512" version="1.1"><path d="M 378.801 121.250 C 377.931 121.938, 365.185 138.025, 350.476 157 C 335.767 175.975, 322.166 193.439, 320.252 195.808 L 316.771 200.116 309.492 193.058 C 300.944 184.769, 297.849 183.997, 292.923 188.923 C 287.788 194.058, 288.577 195.874, 301.737 209.198 C 308.192 215.733, 314.501 221.339, 315.756 221.654 C 317.012 221.969, 319.268 221.707, 320.769 221.073 C 322.557 220.317, 335.244 204.818, 357.493 176.209 C 386.486 138.929, 391.540 131.939, 391.854 128.683 C 392.351 123.535, 389.160 120, 384.017 120 C 382.018 120, 379.671 120.563, 378.801 121.250 M 196.308 351.941 C 189.893 354.250, 190.818 353.684, 177.145 363.682 C 162.928 374.078, 160.050 375, 141.818 375 L 128 375 128 418 L 128 461 143.250 461.016 C 152.703 461.025, 160.591 461.549, 164 462.393 C 167.025 463.141, 194.250 472.664, 224.500 483.555 L 279.500 503.356 289 503.409 C 299.052 503.465, 305.594 501.901, 313.649 497.514 C 315.931 496.271, 347.244 471.585, 383.233 442.657 C 450.795 388.351, 450.077 388.998, 452.511 380.244 C 453.555 376.489, 450.426 367.798, 446.791 364.355 C 441.995 359.815, 439.185 358.667, 432.869 358.667 C 425.824 358.667, 426.677 358.157, 394.500 381.619 C 366.187 402.265, 364.842 403.198, 366.698 400.903 C 367.356 400.088, 368.331 397.481, 368.864 395.110 C 370.915 385.981, 364.465 375.513, 355.307 373.108 C 353.213 372.558, 321.096 367.134, 283.934 361.054 C 212.030 349.290, 205.546 348.616, 196.308 351.941 M 310.820 409.985 L 266.140 410.500 285.077 426.500 C 298.884 438.166, 304.829 442.585, 307.024 442.815 C 309.559 443.080, 313.669 440.492, 333.018 426.444 C 345.658 417.267, 356 409.588, 356 409.379 C 356 409.171, 355.887 409.106, 355.750 409.235 C 355.613 409.364, 335.394 409.701, 310.820 409.985" stroke="none" fill="#f3cdb0" fill-rule="evenodd"/><path d="M 333.296 9.388 C 330.984 10.143, 326.870 12.393, 324.153 14.387 C 315.201 20.959, 309.001 22.151, 296.917 19.623 C 283.181 16.749, 273.729 20.773, 265.500 32.997 C 259.450 41.984, 254.540 45.634, 246.500 47.122 C 236.990 48.882, 231.932 51.021, 227.397 55.201 C 222.495 59.720, 219.564 65.447, 218.543 72.500 C 217.632 78.799, 214.512 86.171, 211.598 88.908 C 210.365 90.066, 206.464 92.946, 202.928 95.307 C 198.380 98.346, 195.561 101.162, 193.291 104.939 C 189.004 112.068, 188.316 117.400, 190.419 127.190 C 192.540 137.059, 191.836 142.285, 187.449 149.229 C 180.973 159.481, 179.738 162.392, 179.242 168.576 C 178.631 176.186, 180.018 180.617, 185.541 188.705 C 191.674 197.684, 192.691 202.936, 190.444 214.008 C 188.899 221.618, 188.823 223.632, 189.901 228.449 C 191.538 235.763, 195.919 241.383, 204.361 247 C 212.395 252.345, 216.463 257.961, 217.992 265.815 C 218.601 268.942, 219.330 272.703, 219.612 274.173 C 220.452 278.549, 225.799 285.678, 230.650 288.892 C 233.146 290.545, 237.733 292.380, 240.844 292.971 C 254.807 295.620, 258.752 298.042, 265.262 307.960 C 270.584 316.069, 276.279 320.471, 283.551 322.099 C 288.368 323.177, 290.382 323.101, 297.992 321.556 C 309.064 319.309, 314.316 320.326, 323.295 326.459 C 331.383 331.982, 335.814 333.369, 343.424 332.758 C 349.613 332.261, 352.510 331.031, 362.813 324.525 C 369.654 320.206, 375.415 319.410, 384.500 321.530 C 398.846 324.878, 408.843 320.803, 417.310 308.156 C 423.045 299.590, 428.566 295.601, 436.875 294.019 C 447.339 292.028, 450.381 290.647, 455.615 285.515 C 461.024 280.210, 462.909 276.138, 464.878 265.500 C 466.366 257.460, 470.016 252.550, 479.003 246.500 C 491.227 238.271, 495.251 228.819, 492.377 215.083 C 489.819 202.856, 490.863 197.567, 497.788 187.681 C 506.425 175.351, 505.743 164.292, 495.472 150.118 C 490.891 143.796, 490.034 137.115, 492.371 125.946 C 493.761 119.304, 493.359 113.181, 491.182 107.802 C 489.583 103.855, 483.298 97.259, 478.398 94.388 C 469.537 89.194, 465.509 82.404, 463.476 69.225 C 462.070 60.121, 451.879 49.930, 442.775 48.524 C 429.596 46.491, 422.806 42.463, 417.612 33.602 C 414.739 28.698, 408.141 22.413, 404.198 20.823 C 398.612 18.569, 392.283 18.114, 386.327 19.537 C 375.820 22.047, 368.205 21.110, 361.882 16.528 C 351.440 8.961, 341.896 6.577, 333.296 9.388 M 378.801 121.250 C 377.931 121.938, 365.185 138.025, 350.476 157 C 335.767 175.975, 322.166 193.439, 320.252 195.808 L 316.771 200.116 309.492 193.058 C 300.944 184.769, 297.849 183.997, 292.923 188.923 C 287.788 194.058, 288.577 195.874, 301.737 209.198 C 308.192 215.733, 314.501 221.339, 315.756 221.654 C 317.012 221.969, 319.268 221.707, 320.769 221.073 C 322.557 220.317, 335.244 204.818, 357.493 176.209 C 386.486 138.929, 391.540 131.939, 391.854 128.683 C 392.351 123.535, 389.160 120, 384.017 120 C 382.018 120, 379.671 120.563, 378.801 121.250 M 11.913 368.282 C 8.131 371.186, 8 372.842, 8 417.869 C 8 443.466, 8.400 462.923, 8.957 464.387 C 11.121 470.079, 11.093 470.076, 69.419 469.775 L 122.840 469.500 125.420 467.076 L 128 464.651 128 418.280 L 128 371.909 125.545 369.455 L 123.091 367 68.295 367.032 C 26.798 367.056, 13.115 367.359, 11.913 368.282" stroke="none" fill="#43d35f" fill-rule="evenodd"/></svg>