<svg xmlns="http://www.w3.org/2000/svg" width="512" height="512" viewBox="0 0 512 512" version="1.1"><path d="M 413 309.483 C 413 310.663, 423.868 315.304, 430.756 317.065 C 439.274 319.244, 452.021 319.602, 460.201 317.892 C 466.649 316.545, 480 311.160, 480 309.907 C 480 309.382, 465.868 309, 446.500 309 C 428.075 309, 413 309.217, 413 309.483 M 365.216 349.019 C 334.919 356.956, 314 384.315, 314 416 C 314 454.838, 344.162 485, 383 485 C 421.838 485, 452 454.838, 452 416 C 452 383.935, 431.071 356.819, 400.234 348.932 C 390.236 346.375, 375.164 346.412, 365.216 349.019 M 78.666 354.074 C 47.870 364.668, 38.727 403.466, 61.630 426.370 C 78.624 443.364, 106.853 443.330, 123.531 426.296 C 140.377 409.090, 140.305 381.566, 123.370 364.630 C 111.839 353.100, 93.848 348.851, 78.666 354.074 M 377.147 388.064 C 363.991 390.683, 354.706 402.242, 354.706 416 C 354.706 446.887, 396.754 455.418, 409.291 427.074 C 411.992 420.970, 411.992 411.030, 409.291 404.926 C 403.777 392.459, 390.377 385.431, 377.147 388.064 M 198.559 454.023 C 191.833 456.649, 184.495 464.061, 181.988 470.762 C 174.429 490.964, 188.705 512, 209.973 512 C 218.408 512, 225.528 509.064, 231.299 503.204 C 250.223 483.991, 236.658 451.844, 209.712 452.047 C 206.056 452.074, 201.467 452.887, 198.559 454.023" stroke="none" fill="#05a9f1" fill-rule="evenodd"/><path d="M 224 1.429 C 206.639 6.250, 191.954 21.204, 188.085 38 C 186.771 43.707, 186.749 56.198, 188.043 61.808 C 191.065 74.911, 202.055 88.799, 214.089 94.723 C 222.219 98.725, 227.594 99.951, 237 99.951 C 246.406 99.951, 251.781 98.725, 259.911 94.723 C 271.958 88.792, 282.921 74.997, 285.915 62 C 287.246 56.220, 287.246 43.780, 285.915 38 C 281.988 20.952, 266.048 5.012, 249 1.085 C 242.976 -0.302, 229.568 -0.118, 224 1.429 M 233.213 41.507 C 231.072 42.437, 229.410 44.167, 228.449 46.467 C 226.381 51.418, 228.476 56.465, 233.464 58.549 C 236.583 59.853, 237.417 59.853, 240.536 58.549 C 248.261 55.322, 248.281 44.687, 240.568 41.464 C 236.451 39.744, 237.281 39.739, 233.213 41.507 M 368.124 54.578 C 349.415 59.609, 333.409 75.814, 328.489 94.703 C 326.581 102.028, 326.581 114.972, 328.489 122.297 C 333.468 141.410, 349.529 157.517, 368.552 162.472 C 376.067 164.429, 388.933 164.429, 396.448 162.472 C 415.550 157.496, 431.496 141.550, 436.472 122.448 C 438.429 114.933, 438.429 102.067, 436.472 94.552 C 431.496 75.450, 415.550 59.504, 396.448 54.528 C 389.169 52.632, 375.266 52.657, 368.124 54.578 M 85.989 66.872 C 70.479 71.836, 58.142 84.426, 53.593 99.932 C 51.547 106.909, 51.547 120.091, 53.593 127.068 C 58.166 142.656, 71.344 155.834, 86.932 160.407 C 93.909 162.453, 107.091 162.453, 114.068 160.407 C 129.846 155.778, 142.778 142.846, 147.407 127.068 C 148.289 124.061, 149 118.006, 149 113.500 C 149 108.994, 148.289 102.939, 147.407 99.932 C 142.778 84.154, 129.846 71.222, 114.068 66.593 C 106.790 64.458, 93.105 64.594, 85.989 66.872 M 379.275 94.054 C 366.245 96.814, 363.397 114.656, 374.913 121.381 C 384.717 127.107, 397.342 119.921, 397.328 108.622 C 397.316 98.791, 388.915 92.012, 379.275 94.054 M 97 106.270 C 93.834 107.902, 91.753 112.169, 92.559 115.378 C 94.849 124.501, 108.400 122.895, 108.400 113.500 C 108.400 107.486, 102.231 103.573, 97 106.270 M 435 189.628 C 411.664 194.123, 392.421 211.369, 384.373 235 C 381.688 242.885, 381.697 265.160, 384.388 273 C 389.477 287.821, 400.878 303.254, 409.714 307.279 C 410.971 307.852, 412 308.586, 412 308.911 C 412 309.235, 427.806 309.399, 447.125 309.275 L 482.250 309.050 487.702 304.844 C 490.700 302.531, 494.932 298.582, 497.106 296.069 C 502.212 290.166, 508.496 277.681, 510.075 270.300 C 510.758 267.110, 511.695 264.072, 512.158 263.550 C 513.255 262.312, 513.255 245.688, 512.158 244.450 C 511.695 243.928, 510.758 240.890, 510.075 237.700 C 505.782 217.638, 488.898 199.551, 467.275 191.854 C 462.980 190.324, 458.425 189.714, 449.500 189.472 C 442.900 189.293, 436.375 189.363, 435 189.628 M 32.500 211.350 C 19.632 215.611, 9.853 223.971, 4.381 235.388 C 1.094 242.248, 1 242.792, 1 255 C 1 267.208, 1.094 267.752, 4.381 274.612 C 8.902 284.045, 16.178 291.228, 25.935 295.887 C 33.269 299.390, 33.851 299.500, 45 299.500 C 56.129 299.500, 56.743 299.384, 64.041 295.912 C 73.997 291.174, 81.116 284.054, 85.887 274.065 C 89.390 266.731, 89.500 266.149, 89.500 255 C 89.500 243.851, 89.390 243.269, 85.887 235.935 C 81.113 225.939, 74.039 218.871, 64.065 214.131 C 57.153 210.846, 55.637 210.514, 46.500 210.281 C 40.209 210.120, 35.017 210.517, 32.500 211.350 M 441.718 230.070 C 436.092 231.427, 432.751 233.426, 428.796 237.805 C 419.946 247.600, 420.658 262.821, 430.387 271.789 C 446.050 286.226, 471.440 275.269, 471.369 254.102 C 471.348 247.639, 469.353 242.399, 465.129 237.709 C 459.318 231.257, 449.747 228.134, 441.718 230.070" stroke="none" fill="#1cd9b9" fill-rule="evenodd"/></svg>