<svg xmlns="http://www.w3.org/2000/svg" width="512" height="512" viewBox="0 0 512 512" version="1.1"><path d="M 77 240.500 L 77 435 105.066 435 C 135.010 435, 136.168 435.176, 137.843 439.979 L 138.896 443 147.448 443 C 154.008 443, 156 442.682, 156 441.635 C 156 440.884, 156.930 439.087, 158.068 437.641 L 160.135 435.013 235.318 434.756 L 310.500 434.500 310.762 395.750 L 311.023 357 272.112 357 L 233.201 357 232.850 370.087 C 232.391 387.247, 227.623 392.776, 219.923 385.077 L 217 382.154 217 256 L 217 129.846 219.923 126.923 C 227.623 119.224, 232.391 124.753, 232.850 141.913 L 233.201 155 272.100 155 L 311 155 311 100.500 L 311 46 274.556 46 C 232.132 46, 233.498 45.684, 232.326 55.784 C 231.393 63.832, 226.788 70.742, 220.007 74.274 L 214.513 77.135 193.007 76.817 C 164.276 76.393, 159.118 73.595, 155.590 56.519 C 153.280 45.341, 155.924 46, 113.389 46 L 77 46 77 240.500 M 233 178 L 233 186 349.500 186 L 466 186 466 179.557 C 466 169.011, 478.287 170, 347.277 170 L 233 170 233 178 M 108.712 194.896 C 92.064 205.915, 86.259 241.593, 95.869 273.839 C 106.124 308.248, 137.641 331.828, 159.142 321.178 C 190.784 305.503, 201 284.407, 201 234.744 C 201 201.680, 202.624 205.997, 186 194.868 L 173.500 186.500 147.896 186.203 L 122.292 185.907 108.712 194.896 M 232.667 201.667 C 232.300 202.033, 232 205.633, 232 209.667 L 232 217 349 217 L 466 217 466 209 L 466 201 349.667 201 C 285.683 201, 233.033 201.300, 232.667 201.667 M 116.945 207.750 L 108.500 213.500 108.216 232.500 C 107.589 274.406, 115.900 293.766, 139.937 306.398 L 147.163 310.195 153.831 306.933 C 177.280 295.466, 186 276.629, 186 237.440 L 186 213.300 177.510 207.650 L 169.020 202 147.205 202 L 125.390 202 116.945 207.750 M 162.804 232.939 C 161.449 234.006, 156.378 240.074, 151.537 246.424 L 142.734 257.969 136.810 252.485 C 128.345 244.647, 120 245.653, 120 254.510 C 120 259.682, 138.570 277.233, 143.604 276.818 C 148.507 276.414, 174.333 244.393, 174.333 238.717 C 174.333 232.679, 167.493 229.251, 162.804 232.939 M 233 287.500 L 233 342 347.277 342 C 484.412 342, 466 346.627, 466 312.166 C 466 283.213, 466.225 281.913, 471.477 280.595 C 475.412 279.608, 475.412 263.392, 471.477 262.405 C 466.826 261.238, 466 258.654, 466 245.277 L 466 233 349.500 233 L 233 233 233 287.500 M 378.259 248.685 C 372.632 249.819, 369.853 285.889, 374.911 292.139 L 376.821 294.500 408.661 294.811 C 443.105 295.148, 446.887 294.739, 448.835 290.462 C 451.330 284.986, 450.360 254.530, 447.588 251.306 L 445.175 248.500 412.838 248.367 C 395.052 248.294, 379.491 248.437, 378.259 248.685 M 388 271.500 L 388 279 411 279 L 434 279 434 271.500 L 434 264 411 264 L 388 264 388 271.500" stroke="none" fill="#73d1f3" fill-rule="evenodd"/><path d="M 53.763 1.514 C 47.900 3.667, 41.209 8.739, 37.510 13.833 C 30.434 23.576, 30.949 3.524, 31.239 258 L 31.500 487.500 33.968 492.500 C 37.132 498.909, 44.130 505.912, 50.500 509.043 L 55.500 511.500 194 511.500 L 332.500 511.500 337.784 508.716 C 344.655 505.096, 350.659 498.869, 353.903 492 L 356.500 486.500 356.778 421.750 L 357.056 357 411.316 357 L 465.576 357 469.980 354.750 C 472.402 353.513, 475.760 350.772, 477.442 348.659 L 480.500 344.818 480.791 314.514 L 481.082 284.210 478.307 282.027 C 474.983 279.412, 470.434 279.881, 467.750 283.114 C 466.179 285.006, 466 287.969, 466 312.054 C 466 346.647, 484.423 342, 347.277 342 L 233 342 233 287.500 L 233 233 349.500 233 L 466 233 466 245.389 C 466 261.534, 470.438 267.163, 478.295 260.983 L 481.058 258.809 480.779 212.997 L 480.500 167.184 477.442 163.342 C 475.760 161.229, 472.402 158.488, 469.980 157.250 L 465.576 155 411.316 155 L 357.056 155 356.778 90.250 L 356.500 25.500 353.903 20 C 350.659 13.131, 344.655 6.904, 337.784 3.284 L 332.500 0.500 270.239 0.221 C 204.553 -0.073, 204.744 -0.086, 202.977 4.561 C 201.826 7.589, 185 8.468, 185 5.500 C 185 4.675, 184.100 3.100, 183 2 C 180.406 -0.594, 60.726 -1.044, 53.763 1.514 M 77 240.500 L 77 435 105.066 435 C 135.010 435, 136.168 435.176, 137.843 439.979 L 138.896 443 147.448 443 C 154.008 443, 156 442.682, 156 441.635 C 156 440.884, 156.930 439.087, 158.068 437.641 L 160.135 435.013 235.318 434.756 L 310.500 434.500 310.762 395.750 L 311.023 357 272.112 357 L 233.201 357 232.850 370.087 C 232.391 387.247, 227.623 392.776, 219.923 385.077 L 217 382.154 217 256 L 217 129.846 219.923 126.923 C 227.623 119.224, 232.391 124.753, 232.850 141.913 L 233.201 155 272.100 155 L 311 155 311 100.500 L 311 46 274.556 46 C 232.132 46, 233.498 45.684, 232.326 55.784 C 231.393 63.832, 226.788 70.742, 220.007 74.274 L 214.513 77.135 193.007 76.817 C 164.276 76.393, 159.118 73.595, 155.590 56.519 C 153.280 45.341, 155.924 46, 113.389 46 L 77 46 77 240.500 M 233 178 L 233 186 349.500 186 L 466 186 466 179.557 C 466 169.011, 478.287 170, 347.277 170 L 233 170 233 178 M 108.712 194.896 C 92.064 205.915, 86.259 241.593, 95.869 273.839 C 106.124 308.248, 137.641 331.828, 159.142 321.178 C 190.784 305.503, 201 284.407, 201 234.744 C 201 201.680, 202.624 205.997, 186 194.868 L 173.500 186.500 147.896 186.203 L 122.292 185.907 108.712 194.896 M 232.667 201.667 C 232.300 202.033, 232 205.633, 232 209.667 L 232 217 349 217 L 466 217 466 209 L 466 201 349.667 201 C 285.683 201, 233.033 201.300, 232.667 201.667 M 116.945 207.750 L 108.500 213.500 108.216 232.500 C 107.589 274.406, 115.900 293.766, 139.937 306.398 L 147.163 310.195 153.831 306.933 C 177.280 295.466, 186 276.629, 186 237.440 L 186 213.300 177.510 207.650 L 169.020 202 147.205 202 L 125.390 202 116.945 207.750 M 162.804 232.939 C 161.449 234.006, 156.378 240.074, 151.537 246.424 L 142.734 257.969 136.810 252.485 C 128.345 244.647, 120 245.653, 120 254.510 C 120 259.682, 138.570 277.233, 143.604 276.818 C 148.507 276.414, 174.333 244.393, 174.333 238.717 C 174.333 232.679, 167.493 229.251, 162.804 232.939 M 378.259 248.685 C 372.632 249.819, 369.853 285.889, 374.911 292.139 L 376.821 294.500 408.661 294.811 C 443.105 295.148, 446.887 294.739, 448.835 290.462 C 451.330 284.986, 450.360 254.530, 447.588 251.306 L 445.175 248.500 412.838 248.367 C 395.052 248.294, 379.491 248.437, 378.259 248.685 M 388 271.500 L 388 279 411 279 L 434 279 434 271.500 L 434 264 411 264 L 388 264 388 271.500" stroke="none" fill="#1c2420" fill-rule="evenodd"/></svg>