<svg xmlns="http://www.w3.org/2000/svg" width="512" height="512" viewBox="0 0 512 512" version="1.1"><path d="M 411.500 46.084 C 392.674 49.794, 377.913 57.990, 364.360 72.258 C 348.228 89.240, 339.706 112.215, 341.467 133.973 C 342.479 146.472, 342.845 148.925, 344.601 154.983 C 352.220 181.258, 373.794 203.387, 400 211.809 C 420.560 218.417, 440.244 217.201, 462.463 207.951 C 483.749 199.090, 502.237 177.522, 509.198 153.432 C 512.503 141.995, 512.523 119.071, 509.238 107.715 C 504.308 90.668, 493.219 73.980, 479.893 63.554 C 471.563 57.036, 457.505 49.962, 448 47.506 C 440.270 45.508, 418.688 44.667, 411.500 46.084 M 432.467 122.058 L 413.039 141.393 404.770 133.335 C 400.221 128.904, 395.480 124.958, 394.234 124.566 C 391.199 123.614, 385.363 125.644, 383.503 128.299 C 382.676 129.479, 382 132.220, 382 134.390 C 382 138.108, 382.750 139.092, 395.107 151.571 C 408.897 165.498, 411.126 166.847, 416.500 164.518 C 418.150 163.803, 429.738 152.909, 442.250 140.309 C 464.572 117.831, 465 117.322, 465 113.256 C 465 107.582, 461.888 104.063, 456.196 103.299 L 451.895 102.723 432.467 122.058 M 100 321.500 L 100 367 256 367 L 412 367 412 321.500 L 412 276 256 276 L 100 276 100 321.500" stroke="none" fill="#a3fbc3" fill-rule="evenodd"/><path d="M 432.467 122.058 L 413.039 141.393 404.770 133.335 C 400.221 128.904, 395.480 124.958, 394.234 124.566 C 391.199 123.614, 385.363 125.644, 383.503 128.299 C 382.676 129.479, 382 132.220, 382 134.390 C 382 138.108, 382.750 139.092, 395.107 151.571 C 408.897 165.498, 411.126 166.847, 416.500 164.518 C 418.150 163.803, 429.738 152.909, 442.250 140.309 C 464.572 117.831, 465 117.322, 465 113.256 C 465 107.582, 461.888 104.063, 456.196 103.299 L 451.895 102.723 432.467 122.058 M 85.112 126.581 C 68.845 130.955, 55.594 143.938, 51.552 159.460 C 50.193 164.680, 50 179.740, 50 280.710 L 50 396 29.565 396 C 18.326 396, 8.019 396.422, 6.661 396.939 C 1.688 398.830, -0 401.834, -0 408.794 C 0 434.932, 21.248 460.312, 47.799 465.887 C 55.317 467.466, 456.683 467.466, 464.201 465.887 C 484.752 461.572, 502.935 445.179, 509.016 425.485 C 510.203 421.643, 511.584 417.719, 512.087 416.764 C 513.305 414.448, 513.282 400.708, 512.061 401.462 C 511.545 401.781, 510.758 401.389, 510.311 400.591 C 508.111 396.661, 504.214 396.013, 482.750 396.006 L 462 396 462 302.204 L 462 208.407 452.750 211.326 C 447.663 212.931, 442.938 214.400, 442.250 214.591 C 441.262 214.865, 441 233.895, 441 305.469 L 441 396 256 396 L 71 396 71 280.614 L 71 165.228 73.793 159.882 C 76.914 153.907, 83.075 148.629, 88.775 147.046 C 91.249 146.358, 134.586 146.009, 217.857 146.006 C 323.002 146.001, 343.130 145.781, 342.693 144.643 C 342.407 143.897, 341.851 139.172, 341.457 134.143 L 340.742 125 215.621 125.066 C 109.657 125.122, 89.675 125.353, 85.112 126.581 M 106.014 176.752 C 99.214 180.162, 98.046 187.246, 103.400 192.600 C 107.717 196.917, 112.410 197.209, 116.889 193.440 C 122.826 188.444, 121.535 179.375, 114.466 176.421 C 110.207 174.642, 110.221 174.641, 106.014 176.752 M 156.315 176.464 C 149.456 179.447, 148.276 188.530, 154.111 193.440 L 157.153 196 235.942 196 C 313.420 196, 314.773 195.966, 317.293 193.984 C 323.503 189.100, 322.546 179.379, 315.568 176.464 C 310.487 174.341, 161.196 174.341, 156.315 176.464 M 103.495 228.414 C 94.098 237.811, 106.662 252.045, 116.814 243.503 C 120.421 240.468, 121.451 236.897, 119.994 232.481 C 118.592 228.234, 115.144 226, 109.990 226 C 107.009 226, 105.258 226.651, 103.495 228.414 M 154.301 227.772 C 149.157 231.815, 149.086 239.211, 154.150 243.473 L 157.153 246 265.530 246 C 344.443 246, 374.585 245.690, 376.405 244.861 C 378.925 243.713, 382 238.596, 382 235.549 C 382 233.006, 379.196 228.175, 377.055 227.030 C 375.769 226.341, 338.921 226.007, 265.816 226.022 C 163.776 226.043, 156.354 226.159, 154.301 227.772 M 0.343 409.500 C 0.346 413.900, 0.522 415.576, 0.733 413.224 C 0.945 410.872, 0.942 407.272, 0.727 405.224 C 0.512 403.176, 0.339 405.100, 0.343 409.500 M 22.546 419.250 C 25.329 428.452, 34.249 438.352, 43.782 442.820 L 49.500 445.500 256 445.500 L 462.500 445.500 468.218 442.820 C 477.751 438.352, 486.671 428.452, 489.454 419.250 L 490.135 417 256 417 L 21.865 417 22.546 419.250" stroke="none" fill="#04048c" fill-rule="evenodd"/></svg>