<?xml version="1.0" standalone="no"?>
<!DOCTYPE svg PUBLIC "-//W3C//DTD SVG 20010904//EN"
 "http://www.w3.org/TR/2001/REC-SVG-20010904/DTD/svg10.dtd">
<svg version="1.0" xmlns="http://www.w3.org/2000/svg"
 width="512.000000pt" height="512.000000pt" viewBox="0 0 512.000000 512.000000"
 preserveAspectRatio="xMidYMid meet">

<g transform="translate(0.000000,512.000000) scale(0.100000,-0.100000)"
fill="#000000" stroke="none">
<path d="M560 5106 c-90 -24 -181 -103 -223 -194 l-22 -47 0 -2305 0 -2305 28
-56 c32 -67 108 -141 174 -172 l48 -22 1349 -3 c1213 -2 1355 -1 1405 14 100
29 172 93 220 194 l26 55 3 642 3 642 547 3 547 3 47 27 c25 15 57 45 70 65
22 37 23 44 26 323 2 206 0 290 -9 306 -26 49 -103 52 -128 5 -7 -12 -11 -117
-11 -285 0 -262 0 -265 -22 -280 -20 -14 -147 -16 -1165 -16 l-1143 0 0 545 0
545 1165 0 1165 0 0 -123 c0 -134 8 -159 55 -171 33 -8 83 18 90 47 3 12 5
218 3 457 l-3 435 -23 38 c-13 20 -45 50 -70 65 l-47 27 -547 3 -547 3 -3 642
-3 642 -33 67 c-38 77 -92 130 -171 167 l-56 26 -611 3 c-607 3 -611 2 -637
-18 -15 -12 -27 -30 -27 -41 0 -17 -8 -19 -90 -19 -75 0 -90 3 -90 15 0 9 -11
27 -25 40 l-24 25 -598 -1 c-439 0 -610 -4 -643 -13z m965 -467 c9 -9 23 -47
30 -85 19 -90 55 -141 124 -176 54 -28 56 -28 262 -28 206 0 207 0 259 28 68
36 106 88 124 176 8 37 21 76 30 85 15 14 60 16 381 19 l365 3 0 -546 0 -545
-385 0 -385 0 0 118 c0 127 -9 157 -51 181 -33 19 -81 1 -98 -35 -16 -36 -16
-2512 0 -2548 17 -36 65 -54 98 -35 42 24 51 54 51 182 l0 117 385 0 385 0 0
-390 0 -390 -752 -2 -753 -3 -20 -32 c-20 -32 -21 -32 -102 -33 -82 0 -83 0
-98 30 -9 16 -17 31 -18 32 -1 1 -132 5 -292 8 l-290 5 -3 1943 -2 1943 370
-3 c322 -3 371 -5 385 -19z m3113 -1235 c19 -13 22 -24 22 -80 l0 -64 -1165 0
-1165 0 0 80 0 80 1143 0 c1018 0 1145 -2 1165 -16z m22 -374 l0 -80 -1165 0
-1165 0 0 75 0 74 113 4 c61 1 586 4 1165 5 l1052 2 0 -80z"/>
<path d="M1086 3171 c-74 -50 -140 -100 -146 -111 -19 -36 -8 -588 13 -665 63
-226 234 -420 449 -509 76 -32 92 -30 209 31 184 95 328 281 384 493 22 85 34
576 16 632 -10 30 -32 49 -149 127 l-138 91 -251 0 -251 0 -136 -89z m689
-128 l85 -56 0 -241 c0 -271 -6 -311 -67 -436 -47 -98 -160 -212 -255 -259
l-66 -33 -48 25 c-81 41 -163 108 -211 172 -57 75 -75 112 -104 205 -21 69
-23 93 -24 319 l0 244 84 59 84 58 219 0 218 0 85 -57z"/>
<path d="M1624 2792 c-10 -10 -59 -71 -108 -135 l-90 -116 -57 54 c-47 45 -64
55 -93 55 -43 0 -76 -31 -76 -73 0 -24 19 -49 97 -128 88 -90 100 -99 134 -99
32 0 42 6 76 48 87 105 231 298 237 318 20 64 -71 121 -120 76z"/>
<path d="M3783 2633 c-47 -9 -53 -34 -53 -229 0 -164 2 -184 19 -205 l19 -24
328 -3 c349 -3 372 0 393 44 15 34 15 345 0 378 -7 14 -25 30 -42 36 -29 10
-614 13 -664 3z"/>
</g>
</svg>
